STARTFONT 2.1
FONT -sco-terminal-bold-r-normal--15-120-100-100-m-90-IBM437-1
SIZE 12 100 100
FONTBOUNDINGBOX 9 15 0 -3

STARTPROPERTIES 24
FONTNAME_REGISTRY ""
FAMILY_NAME "terminal"
FOUNDRY "sco"
WEIGHT_NAME "bold"
SETWIDTH_NAME "normal"
SLANT "r"
ADD_STYLE_NAME ""
PIXEL_SIZE 15
POINT_SIZE 120
RESOLUTION_X 100
RESOLUTION_Y 100
SPACING "M"
AVERAGE_WIDTH 90
CHARSET_REGISTRY "IBM437"
CHARSET_ENCODING "1"
CHARSET_COLLECTIONS "ASCII IBM437-1 ADOBE-STANDARD"
FULL_NAME "-sco-terminal-bold-r-normal--15-120-100-100-m-90-IBM437-1"
COPYRIGHT "Copyright (c) 1989 The Santa Cruz Operation, Inc."
WEIGHT 10
X_HEIGHT 12
QUAD_WIDTH 9
DEFAULT_CHAR 0
FONT_DESCENT 3
FONT_ASCENT 12
ENDPROPERTIES

CHARS 256

STARTCHAR C000
ENCODING 0
SWIDTH 714 0
DWIDTH 9 0
BBX 9 15 0 -3
BITMAP
0000
0000
0000
0000
0000
0000
0000
0000
0000
0000
0000
0000
0000
0000
0000
ENDCHAR

STARTCHAR C001
ENCODING 1
SWIDTH 714 0
DWIDTH 9 0
BBX 9 15 0 -3
BITMAP
7F00
C180
8080
8080
A280
A280
8080
8080
A280
BE80
9C80
8880
8080
C180
7F00
ENDCHAR

STARTCHAR C002
ENCODING 2
SWIDTH 714 0
DWIDTH 9 0
BBX 9 15 0 -3
BITMAP
7F00
FF80
FF80
FF80
DD80
DD80
FF80
FF80
DD80
C180
E380
F780
FF80
FF80
7F00
ENDCHAR

STARTCHAR C003
ENCODING 3
SWIDTH 714 0
DWIDTH 9 0
BBX 9 15 0 -3
BITMAP
0000
2200
7700
FF80
FF80
FF80
FF80
FF80
7F00
7F00
3E00
1C00
0800
0000
0000
ENDCHAR

STARTCHAR C004
ENCODING 4
SWIDTH 714 0
DWIDTH 9 0
BBX 9 15 0 -3
BITMAP
1C00
3E00
7F00
7F00
FF80
FF80
FF80
FF80
7F00
7F00
3E00
1C00
0000
0000
0000
ENDCHAR

STARTCHAR C005
ENCODING 5
SWIDTH 714 0
DWIDTH 9 0
BBX 9 15 0 -3
BITMAP
0800
1C00
3E00
7F00
7F00
3E00
FF80
FF80
FF80
5D00
1C00
1C00
3E00
0000
0000
ENDCHAR

STARTCHAR C006
ENCODING 6
SWIDTH 714 0
DWIDTH 9 0
BBX 9 15 0 -3
BITMAP
0000
0000
0800
1C00
3E00
7F00
FF80
FF80
FF80
7F00
0800
0800
3E00
0000
0000
ENDCHAR

STARTCHAR C007
ENCODING 7
SWIDTH 714 0
DWIDTH 9 0
BBX 9 15 0 -3
BITMAP
0000
0000
0000
0000
0800
1C00
3E00
1C00
0800
0000
0000
0000
0000
0000
0000
ENDCHAR

STARTCHAR C010
ENCODING 8
SWIDTH 714 0
DWIDTH 9 0
BBX 9 15 0 -3
BITMAP
FF80
FF80
FF80
FF80
FF80
F780
E380
C180
E380
F780
FF80
FF80
FF80
FF80
FF80
ENDCHAR

STARTCHAR C011
ENCODING 9
SWIDTH 714 0
DWIDTH 9 0
BBX 9 15 0 -3
BITMAP
0000
0000
3E00
3E00
6300
6300
4100
4100
4100
6300
6300
3E00
3E00
0000
0000
ENDCHAR

STARTCHAR C012
ENCODING 10
SWIDTH 714 0
DWIDTH 9 0
BBX 9 15 0 -3
BITMAP
0000
FF80
C180
C180
9C80
9C80
BE80
BE80
BE80
9C80
9C80
C180
C180
FF80
0000
ENDCHAR

STARTCHAR C013
ENCODING 11
SWIDTH 714 0
DWIDTH 9 0
BBX 9 15 0 -3
BITMAP
0000
0000
0F00
0700
0700
0D00
3C00
6600
4200
4200
6600
3C00
0000
0000
0000
ENDCHAR

STARTCHAR C014
ENCODING 12
SWIDTH 714 0
DWIDTH 9 0
BBX 9 15 0 -3
BITMAP
0000
3E00
6300
C180
C180
C180
6300
3E00
0800
0800
7F00
0800
0800
0000
0000
ENDCHAR

STARTCHAR C015
ENCODING 13
SWIDTH 714 0
DWIDTH 9 0
BBX 9 15 0 -3
BITMAP
0000
1F00
1B00
1F00
1800
1800
1800
1800
1800
3800
7800
7000
0000
0000
0000
ENDCHAR

STARTCHAR C016
ENCODING 14
SWIDTH 714 0
DWIDTH 9 0
BBX 9 15 0 -3
BITMAP
4000
7F80
6180
6180
7F80
6180
6180
6180
6180
6380
E380
E380
E380
E000
0000
ENDCHAR

STARTCHAR C017
ENCODING 15
SWIDTH 714 0
DWIDTH 9 0
BBX 9 15 0 -3
BITMAP
0000
0000
0000
0000
DD80
7F00
7F00
E380
E380
7F00
7F00
DD80
0000
0000
0000
ENDCHAR

STARTCHAR C020
ENCODING 16
SWIDTH 714 0
DWIDTH 9 0
BBX 9 15 0 -3
BITMAP
4000
6000
7000
7800
7C00
7E00
7F00
7E00
7C00
7800
7000
6000
4000
0000
0000
ENDCHAR

STARTCHAR C021
ENCODING 17
SWIDTH 714 0
DWIDTH 9 0
BBX 9 15 0 -3
BITMAP
0100
0300
0700
0F00
1F00
3F00
7F00
3F00
1F00
0F00
0700
0300
0100
0000
0000
ENDCHAR

STARTCHAR C022
ENCODING 18
SWIDTH 714 0
DWIDTH 9 0
BBX 9 15 0 -3
BITMAP
0800
1C00
3E00
7F00
FF80
0800
0800
0800
FF80
7F00
3E00
1C00
0800
0000
0000
ENDCHAR

STARTCHAR C023
ENCODING 19
SWIDTH 714 0
DWIDTH 9 0
BBX 9 15 0 -3
BITMAP
0000
0000
0000
3600
3600
3600
3600
3600
3600
0000
3600
3600
0000
0000
0000
ENDCHAR

STARTCHAR C024
ENCODING 20
SWIDTH 714 0
DWIDTH 9 0
BBX 9 15 0 -3
BITMAP
0000
0000
0000
3F80
7F80
6D80
7F80
3F80
0D80
0D80
0D80
0D80
0000
0000
0000
ENDCHAR

STARTCHAR C025
ENCODING 21
SWIDTH 714 0
DWIDTH 9 0
BBX 9 15 0 -3
BITMAP
0000
0000
7F00
6300
4000
7C00
3600
1F00
0100
6300
7F00
0000
0000
0000
0000
ENDCHAR

STARTCHAR C026
ENCODING 22
SWIDTH 714 0
DWIDTH 9 0
BBX 9 15 0 -3
BITMAP
0000
0000
0000
0000
0000
0000
7F00
7F00
7F00
7F00
7F00
7F00
0000
0000
0000
ENDCHAR

STARTCHAR C027
ENCODING 23
SWIDTH 714 0
DWIDTH 9 0
BBX 9 15 0 -3
BITMAP
0800
1C00
3E00
7F00
FF80
0800
0800
FF80
7F00
3E00
1C00
0800
0000
FF80
0000
ENDCHAR

STARTCHAR C030
ENCODING 24
SWIDTH 714 0
DWIDTH 9 0
BBX 9 15 0 -3
BITMAP
0000
0800
1C00
3E00
7F00
0800
0800
0800
0800
0800
0800
0800
0000
0000
0000
ENDCHAR

STARTCHAR C031
ENCODING 25
SWIDTH 714 0
DWIDTH 9 0
BBX 9 15 0 -3
BITMAP
0000
0800
0800
0800
0800
0800
0800
0800
7F00
3E00
1C00
0800
0000
0000
0000
ENDCHAR

STARTCHAR C032
ENCODING 26
SWIDTH 714 0
DWIDTH 9 0
BBX 9 15 0 -3
BITMAP
0000
3000
1800
0C00
0E00
FF00
FF00
0E00
0C00
1800
7000
0000
0000
0000
0000
ENDCHAR

STARTCHAR C033
ENCODING 27
SWIDTH 714 0
DWIDTH 9 0
BBX 9 15 0 -3
BITMAP
0000
0C00
1800
3000
7000
FF00
FF00
7000
3000
1800
0C00
0000
0000
0000
0000
ENDCHAR

STARTCHAR C034
ENCODING 28
SWIDTH 714 0
DWIDTH 9 0
BBX 9 15 0 -3
BITMAP
0000
0000
C000
C000
C000
C000
C000
C000
C000
FF80
FF80
0000
0000
0000
0000
ENDCHAR

STARTCHAR C035
ENCODING 29
SWIDTH 714 0
DWIDTH 9 0
BBX 9 15 0 -3
BITMAP
0000
0000
2200
2200
6300
FF80
FF80
6300
2200
2200
0000
0000
0000
0000
0000
ENDCHAR

STARTCHAR C036
ENCODING 30
SWIDTH 714 0
DWIDTH 9 0
BBX 9 15 0 -3
BITMAP
0000
0000
0800
1C00
3E00
7F00
FF80
FF80
FF80
FF80
0000
0000
0000
0000
0000
ENDCHAR

STARTCHAR C037
ENCODING 31
SWIDTH 714 0
DWIDTH 9 0
BBX 9 15 0 -3
BITMAP
0000
0000
FF80
FF80
FF80
FF80
7F00
3E00
1C00
0800
0000
0000
0000
0000
0000
ENDCHAR

STARTCHAR C040
ENCODING 32
SWIDTH 714 0
DWIDTH 9 0
BBX 9 15 0 -3
BITMAP
0000
0000
0000
0000
0000
0000
0000
0000
0000
0000
0000
0000
0000
0000
0000
ENDCHAR

STARTCHAR !
ENCODING 33
SWIDTH 714 0
DWIDTH 9 0
BBX 9 15 0 -3
BITMAP
0000
0000
0C00
0C00
0C00
0C00
0C00
0C00
0C00
0C00
0000
0C00
0C00
0000
0000
ENDCHAR

STARTCHAR "
ENCODING 34
SWIDTH 714 0
DWIDTH 9 0
BBX 9 15 0 -3
BITMAP
0000
0000
1B00
1B00
1B00
0000
0000
0000
0000
0000
0000
0000
0000
0000
0000
ENDCHAR

STARTCHAR #
ENCODING 35
SWIDTH 714 0
DWIDTH 9 0
BBX 9 15 0 -3
BITMAP
0000
0000
0000
0000
3600
7F00
7F00
3600
7F00
7F00
3600
0000
0000
0000
0000
ENDCHAR

STARTCHAR $
ENCODING 36
SWIDTH 714 0
DWIDTH 9 0
BBX 9 15 0 -3
BITMAP
0000
0000
0000
0400
1F00
3580
3400
1F00
0580
3580
1F00
0400
0000
0000
0000
ENDCHAR

STARTCHAR %
ENCODING 37
SWIDTH 714 0
DWIDTH 9 0
BBX 9 15 0 -3
BITMAP
0000
0000
2180
7300
7300
2600
0C00
0C00
1900
3380
3380
6100
0000
0000
0000
ENDCHAR

STARTCHAR &
ENCODING 38
SWIDTH 714 0
DWIDTH 9 0
BBX 9 15 0 -3
BITMAP
0000
0000
1C00
3600
6300
3600
1C00
3680
6680
6100
3700
1D80
0000
0000
0000
ENDCHAR

STARTCHAR '
ENCODING 39
SWIDTH 714 0
DWIDTH 9 0
BBX 9 15 0 -3
BITMAP
0000
0000
0700
0700
0E00
0800
0000
0000
0000
0000
0000
0000
0000
0000
0000
ENDCHAR

STARTCHAR (
ENCODING 40
SWIDTH 714 0
DWIDTH 9 0
BBX 9 15 0 -3
BITMAP
0000
0000
0600
0C00
0C00
1800
1800
1800
1800
0C00
0C00
0600
0000
0000
0000
ENDCHAR

STARTCHAR )
ENCODING 41
SWIDTH 714 0
DWIDTH 9 0
BBX 9 15 0 -3
BITMAP
0000
0000
1800
0C00
0C00
0600
0600
0600
0600
0C00
0C00
1800
0000
0000
0000
ENDCHAR

STARTCHAR *
ENCODING 42
SWIDTH 714 0
DWIDTH 9 0
BBX 9 15 0 -3
BITMAP
0000
0000
0000
0000
0400
3580
1F00
3F80
1F00
3580
0400
0000
0000
0000
0000
ENDCHAR

STARTCHAR +
ENCODING 43
SWIDTH 714 0
DWIDTH 9 0
BBX 9 15 0 -3
BITMAP
0000
0000
0000
0000
0C00
0C00
0C00
7F80
0C00
0C00
0C00
0000
0000
0000
0000
ENDCHAR

STARTCHAR ,
ENCODING 44
SWIDTH 714 0
DWIDTH 9 0
BBX 9 15 0 -3
BITMAP
0000
0000
0000
0000
0000
0000
0000
0000
0000
0000
0E00
0E00
0C00
1000
0000
ENDCHAR

STARTCHAR -
ENCODING 45
SWIDTH 714 0
DWIDTH 9 0
BBX 9 15 0 -3
BITMAP
0000
0000
0000
0000
0000
0000
3F80
3F80
0000
0000
0000
0000
0000
0000
0000
ENDCHAR

STARTCHAR .
ENCODING 46
SWIDTH 714 0
DWIDTH 9 0
BBX 9 15 0 -3
BITMAP
0000
0000
0000
0000
0000
0000
0000
0000
0000
0000
0E00
0E00
0E00
0000
0000
ENDCHAR

STARTCHAR /
ENCODING 47
SWIDTH 714 0
DWIDTH 9 0
BBX 9 15 0 -3
BITMAP
0000
0000
0180
0300
0300
0600
0C00
0C00
1800
3000
3000
6000
0000
0000
0000
ENDCHAR

STARTCHAR 0
ENCODING 48
SWIDTH 714 0
DWIDTH 9 0
BBX 9 15 0 -3
BITMAP
0000
0000
0E00
1B00
3180
3180
3180
3180
3180
3180
1B00
0E00
0000
0000
0000
ENDCHAR

STARTCHAR 1
ENCODING 49
SWIDTH 714 0
DWIDTH 9 0
BBX 9 15 0 -3
BITMAP
0000
0000
0400
0C00
1C00
3C00
0C00
0C00
0C00
0C00
0C00
3F00
0000
0000
0000
ENDCHAR

STARTCHAR 2
ENCODING 50
SWIDTH 714 0
DWIDTH 9 0
BBX 9 15 0 -3
BITMAP
0000
0000
3F00
6380
6180
0180
0300
0E00
1C00
3180
7F80
7F80
0000
0000
0000
ENDCHAR

STARTCHAR 3
ENCODING 51
SWIDTH 714 0
DWIDTH 9 0
BBX 9 15 0 -3
BITMAP
0000
0000
7F80
6180
0300
0600
0F00
0180
0180
6180
6180
3F00
0000
0000
0000
ENDCHAR

STARTCHAR 4
ENCODING 52
SWIDTH 714 0
DWIDTH 9 0
BBX 9 15 0 -3
BITMAP
0000
0000
0100
0300
0700
0F00
1B00
3300
7F80
0300
0300
0780
0000
0000
0000
ENDCHAR

STARTCHAR 5
ENCODING 53
SWIDTH 714 0
DWIDTH 9 0
BBX 9 15 0 -3
BITMAP
0000
0000
3F80
3080
3000
3F00
3180
0180
0180
0180
3180
1F00
0000
0000
0000
ENDCHAR

STARTCHAR 6
ENCODING 54
SWIDTH 714 0
DWIDTH 9 0
BBX 9 15 0 -3
BITMAP
0000
0000
0F00
1980
3000
3000
3F00
3980
3180
3180
3180
1F00
0000
0000
0000
ENDCHAR

STARTCHAR 7
ENCODING 55
SWIDTH 714 0
DWIDTH 9 0
BBX 9 15 0 -3
BITMAP
0000
0000
3F80
2180
0180
0300
0600
0C00
0C00
1800
1800
1800
0000
0000
0000
ENDCHAR

STARTCHAR 8
ENCODING 56
SWIDTH 714 0
DWIDTH 9 0
BBX 9 15 0 -3
BITMAP
0000
0000
1F00
3180
3180
3180
1F00
3180
3180
3180
3180
1F00
0000
0000
0000
ENDCHAR

STARTCHAR 9
ENCODING 57
SWIDTH 714 0
DWIDTH 9 0
BBX 9 15 0 -3
BITMAP
0000
0000
1F00
3180
3180
3180
3180
1F80
0180
0180
0300
1E00
0000
0000
0000
ENDCHAR

STARTCHAR :
ENCODING 58
SWIDTH 714 0
DWIDTH 9 0
BBX 9 15 0 -3
BITMAP
0000
0000
0000
0000
0000
0E00
0E00
0E00
0000
0000
0E00
0E00
0E00
0000
0000
ENDCHAR

STARTCHAR ;
ENCODING 59
SWIDTH 714 0
DWIDTH 9 0
BBX 9 15 0 -3
BITMAP
0000
0000
0000
0000
0000
0E00
0E00
0E00
0000
0000
0E00
0E00
1C00
1000
0000
ENDCHAR

STARTCHAR <
ENCODING 60
SWIDTH 714 0
DWIDTH 9 0
BBX 9 15 0 -3
BITMAP
0000
0000
0100
0300
0600
0C00
1800
1800
0C00
0600
0300
0100
0000
0000
0000
ENDCHAR

STARTCHAR =
ENCODING 61
SWIDTH 714 0
DWIDTH 9 0
BBX 9 15 0 -3
BITMAP
0000
0000
0000
0000
0000
3F80
3F80
0000
3F80
3F80
0000
0000
0000
0000
0000
ENDCHAR

STARTCHAR >
ENCODING 62
SWIDTH 714 0
DWIDTH 9 0
BBX 9 15 0 -3
BITMAP
0000
0000
1000
1800
0C00
0600
0300
0300
0600
0C00
1800
1000
0000
0000
0000
ENDCHAR

STARTCHAR ?
ENCODING 63
SWIDTH 714 0
DWIDTH 9 0
BBX 9 15 0 -3
BITMAP
0000
0000
1F00
3380
3180
0180
0300
0600
0C00
0C00
0000
0C00
0C00
0000
0000
ENDCHAR

STARTCHAR @
ENCODING 64
SWIDTH 714 0
DWIDTH 9 0
BBX 9 15 0 -3
BITMAP
0000
0000
1F00
3180
3180
3780
3480
3580
3680
3000
3980
1F00
0000
0000
0000
ENDCHAR

STARTCHAR A
ENCODING 65
SWIDTH 714 0
DWIDTH 9 0
BBX 9 15 0 -3
BITMAP
0000
0000
0E00
1F00
3180
3180
3180
3180
3F80
3180
3180
3180
0000
0000
0000
ENDCHAR

STARTCHAR B
ENCODING 66
SWIDTH 714 0
DWIDTH 9 0
BBX 9 15 0 -3
BITMAP
0000
0000
7F00
3180
3180
3180
3F00
3180
3180
3180
3180
7F00
0000
0000
0000
ENDCHAR

STARTCHAR C
ENCODING 67
SWIDTH 714 0
DWIDTH 9 0
BBX 9 15 0 -3
BITMAP
0000
0000
1F00
3980
3000
3000
3000
3000
3000
3000
3980
1F00
0000
0000
0000
ENDCHAR

STARTCHAR D
ENCODING 68
SWIDTH 714 0
DWIDTH 9 0
BBX 9 15 0 -3
BITMAP
0000
0000
7F00
3180
3180
3180
3180
3180
3180
3180
3180
7F00
0000
0000
0000
ENDCHAR

STARTCHAR E
ENCODING 69
SWIDTH 714 0
DWIDTH 9 0
BBX 9 15 0 -3
BITMAP
0000
0000
7F80
3080
3000
3000
3E00
3000
3000
3000
3080
7F80
0000
0000
0000
ENDCHAR

STARTCHAR F
ENCODING 70
SWIDTH 714 0
DWIDTH 9 0
BBX 9 15 0 -3
BITMAP
0000
0000
3F80
1880
1800
1800
1F00
1800
1800
1800
1800
1800
0000
0000
0000
ENDCHAR

STARTCHAR G
ENCODING 71
SWIDTH 714 0
DWIDTH 9 0
BBX 9 15 0 -3
BITMAP
0000
0000
1F00
3180
3000
3000
3000
3380
3180
3180
3180
1F00
0000
0000
0000
ENDCHAR

STARTCHAR H
ENCODING 72
SWIDTH 714 0
DWIDTH 9 0
BBX 9 15 0 -3
BITMAP
0000
0000
3180
3180
3180
3180
3F80
3180
3180
3180
3180
3180
0000
0000
0000
ENDCHAR

STARTCHAR I
ENCODING 73
SWIDTH 714 0
DWIDTH 9 0
BBX 9 15 0 -3
BITMAP
0000
0000
3F00
0C00
0C00
0C00
0C00
0C00
0C00
0C00
0C00
3F00
0000
0000
0000
ENDCHAR

STARTCHAR J
ENCODING 74
SWIDTH 714 0
DWIDTH 9 0
BBX 9 15 0 -3
BITMAP
0000
0000
0780
0300
0300
0300
0300
0300
0300
2300
3300
1E00
0000
0000
0000
ENDCHAR

STARTCHAR K
ENCODING 75
SWIDTH 714 0
DWIDTH 9 0
BBX 9 15 0 -3
BITMAP
0000
0000
3080
3180
3300
3600
3C00
3800
3C00
3600
3300
3180
0000
0000
0000
ENDCHAR

STARTCHAR L
ENCODING 76
SWIDTH 714 0
DWIDTH 9 0
BBX 9 15 0 -3
BITMAP
0000
0000
3000
3000
3000
3000
3000
3000
3000
3000
3080
3F80
0000
0000
0000
ENDCHAR

STARTCHAR M
ENCODING 77
SWIDTH 714 0
DWIDTH 9 0
BBX 9 15 0 -3
BITMAP
0000
0000
2080
3180
3B80
3F80
3F80
3580
3180
3180
3180
3180
0000
0000
0000
ENDCHAR

STARTCHAR N
ENCODING 78
SWIDTH 714 0
DWIDTH 9 0
BBX 9 15 0 -3
BITMAP
0000
0000
3180
3180
3980
3D80
3780
3380
3180
3180
3180
3180
0000
0000
0000
ENDCHAR

STARTCHAR O
ENCODING 79
SWIDTH 714 0
DWIDTH 9 0
BBX 9 15 0 -3
BITMAP
0000
0000
1F00
3B80
3180
3180
3180
3180
3180
3180
3B80
1F00
0000
0000
0000
ENDCHAR

STARTCHAR P
ENCODING 80
SWIDTH 714 0
DWIDTH 9 0
BBX 9 15 0 -3
BITMAP
0000
0000
3F00
3180
3180
3180
3F00
3000
3000
3000
3000
3000
0000
0000
0000
ENDCHAR

STARTCHAR Q
ENCODING 81
SWIDTH 714 0
DWIDTH 9 0
BBX 9 15 0 -3
BITMAP
0000
0000
1F00
3180
3180
3180
3180
3180
3180
3580
3780
1F00
0180
0000
0000
ENDCHAR

STARTCHAR R
ENCODING 82
SWIDTH 714 0
DWIDTH 9 0
BBX 9 15 0 -3
BITMAP
0000
0000
3F00
3180
3180
3180
3F00
3C00
3600
3300
3180
3180
0000
0000
0000
ENDCHAR

STARTCHAR S
ENCODING 83
SWIDTH 714 0
DWIDTH 9 0
BBX 9 15 0 -3
BITMAP
0000
0000
1F00
3180
3000
3000
1F00
0180
0180
0180
3180
1F00
0000
0000
0000
ENDCHAR

STARTCHAR T
ENCODING 84
SWIDTH 714 0
DWIDTH 9 0
BBX 9 15 0 -3
BITMAP
0000
0000
7F80
0C00
0C00
0C00
0C00
0C00
0C00
0C00
0C00
0C00
0000
0000
0000
ENDCHAR

STARTCHAR U
ENCODING 85
SWIDTH 714 0
DWIDTH 9 0
BBX 9 15 0 -3
BITMAP
0000
0000
3180
3180
3180
3180
3180
3180
3180
3180
3B80
1F00
0000
0000
0000
ENDCHAR

STARTCHAR V
ENCODING 86
SWIDTH 714 0
DWIDTH 9 0
BBX 9 15 0 -3
BITMAP
0000
0000
3180
3180
3180
3B80
1B00
1B00
1B00
0E00
0E00
0400
0000
0000
0000
ENDCHAR

STARTCHAR W
ENCODING 87
SWIDTH 714 0
DWIDTH 9 0
BBX 9 15 0 -3
BITMAP
0000
0000
3180
3180
3180
3180
3580
3580
3580
3F80
3B80
1100
0000
0000
0000
ENDCHAR

STARTCHAR X
ENCODING 88
SWIDTH 714 0
DWIDTH 9 0
BBX 9 15 0 -3
BITMAP
0000
0000
3180
3180
1B00
1F00
0E00
0E00
1F00
1B00
3180
3180
0000
0000
0000
ENDCHAR

STARTCHAR Y
ENCODING 89
SWIDTH 714 0
DWIDTH 9 0
BBX 9 15 0 -3
BITMAP
0000
0000
4080
6180
3300
1E00
0C00
0C00
0C00
0C00
0C00
0C00
0000
0000
0000
ENDCHAR

STARTCHAR Z
ENCODING 90
SWIDTH 714 0
DWIDTH 9 0
BBX 9 15 0 -3
BITMAP
0000
0000
3F80
0180
0380
0700
0E00
1C00
3800
3000
3000
3F80
0000
0000
0000
ENDCHAR

STARTCHAR [
ENCODING 91
SWIDTH 714 0
DWIDTH 9 0
BBX 9 15 0 -3
BITMAP
0000
0000
1F00
1800
1800
1800
1800
1800
1800
1800
1800
1F00
0000
0000
0000
ENDCHAR

STARTCHAR \
ENCODING 92
SWIDTH 714 0
DWIDTH 9 0
BBX 9 15 0 -3
BITMAP
0000
0000
4000
6000
7000
3800
1C00
0E00
0700
0380
0180
0080
0000
0000
0000
ENDCHAR

STARTCHAR ]
ENCODING 93
SWIDTH 714 0
DWIDTH 9 0
BBX 9 15 0 -3
BITMAP
0000
0000
1F00
0300
0300
0300
0300
0300
0300
0300
0300
1F00
0000
0000
0000
ENDCHAR

STARTCHAR ^
ENCODING 94
SWIDTH 714 0
DWIDTH 9 0
BBX 9 15 0 -3
BITMAP
0000
0000
0400
0E00
1B00
3180
0000
0000
0000
0000
0000
0000
0000
0000
0000
ENDCHAR

STARTCHAR _
ENCODING 95
SWIDTH 714 0
DWIDTH 9 0
BBX 9 15 0 -3
BITMAP
0000
0000
0000
0000
0000
0000
0000
0000
0000
0000
0000
7F80
7F80
0000
0000
ENDCHAR

STARTCHAR `
ENCODING 96
SWIDTH 714 0
DWIDTH 9 0
BBX 9 15 0 -3
BITMAP
0000
0000
1C00
1C00
0C00
0400
0000
0000
0000
0000
0000
0000
0000
0000
0000
ENDCHAR

STARTCHAR a
ENCODING 97
SWIDTH 714 0
DWIDTH 9 0
BBX 9 15 0 -3
BITMAP
0000
0000
0000
0000
0000
1F00
3180
0180
1F80
3180
3380
1E80
0000
0000
0000
ENDCHAR

STARTCHAR b
ENCODING 98
SWIDTH 714 0
DWIDTH 9 0
BBX 9 15 0 -3
BITMAP
0000
0000
3000
3000
3000
3F00
3B80
3180
3180
3180
3B80
2F00
0000
0000
0000
ENDCHAR

STARTCHAR c
ENCODING 99
SWIDTH 714 0
DWIDTH 9 0
BBX 9 15 0 -3
BITMAP
0000
0000
0000
0000
0000
1F00
3180
3000
3000
3000
3180
1F00
0000
0000
0000
ENDCHAR

STARTCHAR d
ENCODING 100
SWIDTH 714 0
DWIDTH 9 0
BBX 9 15 0 -3
BITMAP
0000
0000
0180
0180
0180
1F80
3980
3180
3180
3180
3980
1E80
0000
0000
0000
ENDCHAR

STARTCHAR e
ENCODING 101
SWIDTH 714 0
DWIDTH 9 0
BBX 9 15 0 -3
BITMAP
0000
0000
0000
0000
0000
1F00
3180
3180
3F80
3000
3000
1F00
0000
0000
0000
ENDCHAR

STARTCHAR f
ENCODING 102
SWIDTH 714 0
DWIDTH 9 0
BBX 9 15 0 -3
BITMAP
0000
0000
0700
0C80
0C80
0C00
0C00
3F00
0C00
0C00
0C00
0C00
0000
0000
0000
ENDCHAR

STARTCHAR g
ENCODING 103
SWIDTH 714 0
DWIDTH 9 0
BBX 9 15 0 -3
BITMAP
0000
0000
0000
0000
0000
1E80
3380
3300
3300
1E00
3000
1F00
3180
3180
1F00
ENDCHAR

STARTCHAR h
ENCODING 104
SWIDTH 714 0
DWIDTH 9 0
BBX 9 15 0 -3
BITMAP
0000
0000
3000
3000
3000
3F00
3180
3180
3180
3180
3180
3180
0000
0000
0000
ENDCHAR

STARTCHAR i
ENCODING 105
SWIDTH 714 0
DWIDTH 9 0
BBX 9 15 0 -3
BITMAP
0000
0000
0C00
0C00
0000
1C00
0C00
0C00
0C00
0C00
0C00
1E00
0000
0000
0000
ENDCHAR

STARTCHAR j
ENCODING 106
SWIDTH 714 0
DWIDTH 9 0
BBX 9 15 0 -3
BITMAP
0000
0000
0300
0300
0000
0700
0300
0300
0300
0300
0300
3300
3300
2300
1E00
ENDCHAR

STARTCHAR k
ENCODING 107
SWIDTH 714 0
DWIDTH 9 0
BBX 9 15 0 -3
BITMAP
0000
0000
3000
3000
3000
3180
3300
3600
3C00
3E00
3300
3180
0000
0000
0000
ENDCHAR

STARTCHAR l
ENCODING 108
SWIDTH 714 0
DWIDTH 9 0
BBX 9 15 0 -3
BITMAP
0000
0000
1C00
0C00
0C00
0C00
0C00
0C00
0C00
0C00
0C00
1E00
0000
0000
0000
ENDCHAR

STARTCHAR m
ENCODING 109
SWIDTH 714 0
DWIDTH 9 0
BBX 9 15 0 -3
BITMAP
0000
0000
0000
0000
0000
7B00
7F80
6D80
6D80
6D80
6180
6180
0000
0000
0000
ENDCHAR

STARTCHAR n
ENCODING 110
SWIDTH 714 0
DWIDTH 9 0
BBX 9 15 0 -3
BITMAP
0000
0000
0000
0000
0000
6F00
3B80
3180
3180
3180
3180
3180
0000
0000
0000
ENDCHAR

STARTCHAR o
ENCODING 111
SWIDTH 714 0
DWIDTH 9 0
BBX 9 15 0 -3
BITMAP
0000
0000
0000
0000
0000
1F00
3180
3180
3180
3180
3180
1F00
0000
0000
0000
ENDCHAR

STARTCHAR p
ENCODING 112
SWIDTH 714 0
DWIDTH 9 0
BBX 9 15 0 -3
BITMAP
0000
0000
0000
0000
0000
6F00
3980
3180
3180
3180
3180
3F00
3000
3000
3000
ENDCHAR

STARTCHAR q
ENCODING 113
SWIDTH 714 0
DWIDTH 9 0
BBX 9 15 0 -3
BITMAP
0000
0000
0000
0000
0000
1E80
3380
3180
3180
3180
3180
1F80
0180
0180
0180
ENDCHAR

STARTCHAR r
ENCODING 114
SWIDTH 714 0
DWIDTH 9 0
BBX 9 15 0 -3
BITMAP
0000
0000
0000
0000
0000
2700
1D80
1980
1800
1800
1800
1800
0000
0000
0000
ENDCHAR

STARTCHAR s
ENCODING 115
SWIDTH 714 0
DWIDTH 9 0
BBX 9 15 0 -3
BITMAP
0000
0000
0000
0000
0000
1F00
3180
3800
1F00
0380
3180
1F00
0000
0000
0000
ENDCHAR

STARTCHAR t
ENCODING 116
SWIDTH 714 0
DWIDTH 9 0
BBX 9 15 0 -3
BITMAP
0000
0000
0000
0C00
0C00
3F00
0C00
0C00
0C00
0C00
0D80
0700
0000
0000
0000
ENDCHAR

STARTCHAR u
ENCODING 117
SWIDTH 714 0
DWIDTH 9 0
BBX 9 15 0 -3
BITMAP
0000
0000
0000
0000
0000
3300
3300
3300
3300
3300
3300
1E80
0000
0000
0000
ENDCHAR

STARTCHAR v
ENCODING 118
SWIDTH 714 0
DWIDTH 9 0
BBX 9 15 0 -3
BITMAP
0000
0000
0000
0000
0000
3180
3180
3180
3180
1B00
0E00
0400
0000
0000
0000
ENDCHAR

STARTCHAR w
ENCODING 119
SWIDTH 714 0
DWIDTH 9 0
BBX 9 15 0 -3
BITMAP
0000
0000
0000
0000
0000
3180
3180
3580
3580
3580
3F80
1B00
0000
0000
0000
ENDCHAR

STARTCHAR x
ENCODING 120
SWIDTH 714 0
DWIDTH 9 0
BBX 9 15 0 -3
BITMAP
0000
0000
0000
0000
0000
3B80
1B00
0E00
0E00
0E00
1B00
3B80
0000
0000
0000
ENDCHAR

STARTCHAR y
ENCODING 121
SWIDTH 714 0
DWIDTH 9 0
BBX 9 15 0 -3
BITMAP
0000
0000
0000
0000
0000
3300
3300
3300
3300
3300
3300
1F00
0300
3300
1E00
ENDCHAR

STARTCHAR z
ENCODING 122
SWIDTH 714 0
DWIDTH 9 0
BBX 9 15 0 -3
BITMAP
0000
0000
0000
0000
0000
3F80
2300
0600
0C00
1800
3080
3F80
0000
0000
0000
ENDCHAR

STARTCHAR {
ENCODING 123
SWIDTH 714 0
DWIDTH 9 0
BBX 9 15 0 -3
BITMAP
0000
0000
0700
0C00
0C00
0600
1C00
1C00
0600
0C00
0C00
0700
0000
0000
0000
ENDCHAR

STARTCHAR |
ENCODING 124
SWIDTH 714 0
DWIDTH 9 0
BBX 9 15 0 -3
BITMAP
0000
0000
0C00
0C00
0C00
0C00
0C00
0C00
0C00
0C00
0C00
0C00
0000
0000
0000
ENDCHAR

STARTCHAR }
ENCODING 125
SWIDTH 714 0
DWIDTH 9 0
BBX 9 15 0 -3
BITMAP
0000
0000
1C00
0600
0600
0C00
0700
0700
0C00
0600
0600
1C00
0000
0000
0000
ENDCHAR

STARTCHAR ~
ENCODING 126
SWIDTH 714 0
DWIDTH 9 0
BBX 9 15 0 -3
BITMAP
0000
0000
1880
3F80
2300
0000
0000
0000
0000
0000
0000
0000
0000
0000
0000
ENDCHAR

STARTCHAR C127
ENCODING 127
SWIDTH 714 0
DWIDTH 9 0
BBX 9 15 0 -3
BITMAP
0000
0000
0400
0E00
1B00
3180
3180
3180
3180
3180
3F80
3F80
0000
0000
0000
ENDCHAR

STARTCHAR C128
ENCODING 128
SWIDTH 714 0
DWIDTH 9 0
BBX 9 15 0 -3
BITMAP
0000
0000
1F00
3180
3180
3000
3000
3180
3180
1F00
0600
0600
0600
1C00
0000
ENDCHAR

STARTCHAR C129
ENCODING 129
SWIDTH 714 0
DWIDTH 9 0
BBX 9 15 0 -3
BITMAP
0000
0000
3300
3300
0000
3300
3300
3300
3300
3300
3300
1D80
0000
0000
0000
ENDCHAR

STARTCHAR C130
ENCODING 130
SWIDTH 714 0
DWIDTH 9 0
BBX 9 15 0 -3
BITMAP
0000
0700
1C00
0000
0000
1F00
3180
3180
3F80
3000
3000
1F00
0000
0000
0000
ENDCHAR

STARTCHAR C131
ENCODING 131
SWIDTH 714 0
DWIDTH 9 0
BBX 9 15 0 -3
BITMAP
0000
0400
0E00
1B00
0000
1F00
3180
0180
1F80
3180
3380
1E80
0000
0000
0000
ENDCHAR

STARTCHAR C132
ENCODING 132
SWIDTH 714 0
DWIDTH 9 0
BBX 9 15 0 -3
BITMAP
0000
0000
1B00
1B00
0000
1F00
3180
0180
1F80
3180
3380
1E80
0000
0000
0000
ENDCHAR

STARTCHAR C133
ENCODING 133
SWIDTH 714 0
DWIDTH 9 0
BBX 9 15 0 -3
BITMAP
0000
0000
1E00
0F00
0000
1F00
3180
0180
1F80
3180
3380
1E80
0000
0000
0000
ENDCHAR

STARTCHAR C134
ENCODING 134
SWIDTH 714 0
DWIDTH 9 0
BBX 9 15 0 -3
BITMAP
0000
0E00
0A00
0E00
0000
1F00
3180
0180
1F80
3180
3380
1E80
0000
0000
0000
ENDCHAR

STARTCHAR C135
ENCODING 135
SWIDTH 714 0
DWIDTH 9 0
BBX 9 15 0 -3
BITMAP
0000
0000
0000
0000
1F00
3180
3180
3000
3000
3180
3180
1F00
0600
0600
1E00
ENDCHAR

STARTCHAR C136
ENCODING 136
SWIDTH 714 0
DWIDTH 9 0
BBX 9 15 0 -3
BITMAP
0000
0400
0E00
1B00
0000
1F00
3180
3180
3F80
3000
3000
1F00
0000
0000
0000
ENDCHAR

STARTCHAR C137
ENCODING 137
SWIDTH 714 0
DWIDTH 9 0
BBX 9 15 0 -3
BITMAP
0000
0000
1B00
1B00
0000
1F00
3180
3180
3F80
3000
3000
1F00
0000
0000
0000
ENDCHAR

STARTCHAR C138
ENCODING 138
SWIDTH 714 0
DWIDTH 9 0
BBX 9 15 0 -3
BITMAP
0000
0000
1E00
0F00
0000
1F00
3180
3180
3F80
3000
3000
1F00
0000
0000
0000
ENDCHAR

STARTCHAR C139
ENCODING 139
SWIDTH 714 0
DWIDTH 9 0
BBX 9 15 0 -3
BITMAP
0000
0000
1400
1400
0000
1C00
0C00
0C00
0C00
0C00
0C00
1E00
0000
0000
0000
ENDCHAR

STARTCHAR C140
ENCODING 140
SWIDTH 714 0
DWIDTH 9 0
BBX 9 15 0 -3
BITMAP
0000
0800
1C00
3600
0000
1C00
0C00
0C00
0C00
0C00
0C00
1E00
0000
0000
0000
ENDCHAR

STARTCHAR C141
ENCODING 141
SWIDTH 714 0
DWIDTH 9 0
BBX 9 15 0 -3
BITMAP
0000
0000
3C00
1E00
0000
1C00
0C00
0C00
0C00
0C00
0C00
1E00
0000
0000
0000
ENDCHAR

STARTCHAR C142
ENCODING 142
SWIDTH 714 0
DWIDTH 9 0
BBX 9 15 0 -3
BITMAP
0000
1B00
1B00
0000
0400
0E00
1B00
3180
3180
3F80
3180
3180
0000
0000
0000
ENDCHAR

STARTCHAR C143
ENCODING 143
SWIDTH 714 0
DWIDTH 9 0
BBX 9 15 0 -3
BITMAP
0E00
0A00
0E00
0000
0400
0E00
1B00
3180
3180
3F80
3180
3180
0000
0000
0000
ENDCHAR

STARTCHAR C144
ENCODING 144
SWIDTH 714 0
DWIDTH 9 0
BBX 9 15 0 -3
BITMAP
0700
0E00
0000
1F80
1880
1800
1800
1E00
1800
1800
1880
1F80
0000
0000
0000
ENDCHAR

STARTCHAR C145
ENCODING 145
SWIDTH 714 0
DWIDTH 9 0
BBX 9 15 0 -3
BITMAP
0000
0000
0000
0000
7700
DD80
1D80
7F80
DC00
DC00
DD80
7780
0000
0000
0000
ENDCHAR

STARTCHAR C146
ENCODING 146
SWIDTH 714 0
DWIDTH 9 0
BBX 9 15 0 -3
BITMAP
0000
0380
0600
0E00
1600
1600
2780
2E00
3E00
2600
2600
6780
0000
0000
0000
ENDCHAR

STARTCHAR C147
ENCODING 147
SWIDTH 714 0
DWIDTH 9 0
BBX 9 15 0 -3
BITMAP
0000
0400
0E00
1B00
0000
1F00
3180
3180
3180
3180
3180
1F00
0000
0000
0000
ENDCHAR

STARTCHAR C148
ENCODING 148
SWIDTH 714 0
DWIDTH 9 0
BBX 9 15 0 -3
BITMAP
0000
0000
1B00
1B00
0000
1F00
3180
3180
3180
3180
3180
1F00
0000
0000
0000
ENDCHAR

STARTCHAR C149
ENCODING 149
SWIDTH 714 0
DWIDTH 9 0
BBX 9 15 0 -3
BITMAP
0000
0000
1E00
0F00
0000
1F00
3180
3180
3180
3180
3180
1F00
0000
0000
0000
ENDCHAR

STARTCHAR C150
ENCODING 150
SWIDTH 714 0
DWIDTH 9 0
BBX 9 15 0 -3
BITMAP
0000
0400
0E00
1B00
0000
3300
3300
3300
3300
3300
3300
1E80
0000
0000
0000
ENDCHAR

STARTCHAR C151
ENCODING 151
SWIDTH 714 0
DWIDTH 9 0
BBX 9 15 0 -3
BITMAP
0000
0000
3C00
1E00
0000
3300
3300
3300
3300
3300
3300
1E80
0000
0000
0000
ENDCHAR

STARTCHAR C152
ENCODING 152
SWIDTH 714 0
DWIDTH 9 0
BBX 9 15 0 -3
BITMAP
0000
0000
3300
3300
0000
0000
3300
3300
3300
3300
3300
1F00
0300
3300
1E00
ENDCHAR

STARTCHAR C153
ENCODING 153
SWIDTH 714 0
DWIDTH 9 0
BBX 9 15 0 -3
BITMAP
1B00
1B00
0000
1F00
3180
3180
3180
3180
3180
3180
3180
1F00
0000
0000
0000
ENDCHAR

STARTCHAR C154
ENCODING 154
SWIDTH 714 0
DWIDTH 9 0
BBX 9 15 0 -3
BITMAP
1B00
1B00
0000
3180
3180
3180
3180
3180
3180
3180
3180
1F00
0000
0000
0000
ENDCHAR

STARTCHAR C155
ENCODING 155
SWIDTH 714 0
DWIDTH 9 0
BBX 9 15 0 -3
BITMAP
0000
0000
0000
0400
0400
1F00
3B80
3000
3000
3000
3B80
1F00
0400
0400
0000
ENDCHAR

STARTCHAR C156
ENCODING 156
SWIDTH 714 0
DWIDTH 9 0
BBX 9 15 0 -3
BITMAP
0000
0F00
1980
1800
1800
3C00
1800
1800
1800
1800
1980
3F80
2000
0000
0000
ENDCHAR

STARTCHAR C157
ENCODING 157
SWIDTH 714 0
DWIDTH 9 0
BBX 9 15 0 -3
BITMAP
0000
0000
6180
3300
1E00
0C00
0C00
3F00
0C00
0C00
3F00
0C00
0C00
0000
0000
ENDCHAR

STARTCHAR C158
ENCODING 158
SWIDTH 714 0
DWIDTH 9 0
BBX 9 15 0 -3
BITMAP
0000
0000
3E00
3300
3300
3E00
3000
3300
3780
3300
3300
3300
0000
0000
0000
ENDCHAR

STARTCHAR C159
ENCODING 159
SWIDTH 714 0
DWIDTH 9 0
BBX 9 15 0 -3
BITMAP
0780
0C00
0C00
0C00
0C00
3F00
0C00
0C00
0C00
0C00
6C00
3800
0000
0000
0000
ENDCHAR

STARTCHAR C160
ENCODING 160
SWIDTH 714 0
DWIDTH 9 0
BBX 9 15 0 -3
BITMAP
0000
0000
0F00
1E00
0000
1F00
3180
0180
1F80
3180
3180
1E80
0000
0000
0000
ENDCHAR

STARTCHAR C161
ENCODING 161
SWIDTH 714 0
DWIDTH 9 0
BBX 9 15 0 -3
BITMAP
0000
0000
1C00
3800
0000
1C00
0C00
0C00
0C00
0C00
0C00
1E00
0000
0000
0000
ENDCHAR

STARTCHAR C162
ENCODING 162
SWIDTH 714 0
DWIDTH 9 0
BBX 9 15 0 -3
BITMAP
0000
0000
0F00
1E00
0000
1F00
3180
3180
3180
3180
3180
1F00
0000
0000
0000
ENDCHAR

STARTCHAR C163
ENCODING 163
SWIDTH 714 0
DWIDTH 9 0
BBX 9 15 0 -3
BITMAP
0000
0000
0000
1E00
3C00
0000
3300
3300
3300
3300
3300
1E80
0000
0000
0000
ENDCHAR

STARTCHAR C164
ENCODING 164
SWIDTH 714 0
DWIDTH 9 0
BBX 9 15 0 -3
BITMAP
0000
0000
3700
1D80
0000
6F00
3B80
3180
3180
3180
3180
3180
0000
0000
0000
ENDCHAR

STARTCHAR C165
ENCODING 165
SWIDTH 714 0
DWIDTH 9 0
BBX 9 15 0 -3
BITMAP
3700
1D80
0000
3180
3180
3980
3D80
3780
3380
3180
3180
3180
0000
0000
0000
ENDCHAR

STARTCHAR C166
ENCODING 166
SWIDTH 714 0
DWIDTH 9 0
BBX 9 15 0 -3
BITMAP
0000
1F00
0300
1F00
1B00
1F80
0000
3F80
3F80
0000
0000
0000
0000
0000
0000
ENDCHAR

STARTCHAR C167
ENCODING 167
SWIDTH 714 0
DWIDTH 9 0
BBX 9 15 0 -3
BITMAP
0000
0700
0D80
0880
0D80
0700
0000
0F80
0F80
0000
0000
0000
0000
0000
0000
ENDCHAR

STARTCHAR C168
ENCODING 168
SWIDTH 714 0
DWIDTH 9 0
BBX 9 15 0 -3
BITMAP
0000
0C00
0C00
0000
0C00
0C00
1800
3000
6000
6100
6300
3E00
0000
0000
0000
ENDCHAR

STARTCHAR C169
ENCODING 169
SWIDTH 714 0
DWIDTH 9 0
BBX 9 15 0 -3
BITMAP
0000
0000
0000
0000
0000
0000
FF80
FF80
C000
C000
C000
C000
0000
0000
0000
ENDCHAR

STARTCHAR C170
ENCODING 170
SWIDTH 714 0
DWIDTH 9 0
BBX 9 15 0 -3
BITMAP
0000
0000
0000
0000
0000
0000
FF80
FF80
0180
0180
0180
0180
0000
0000
0000
ENDCHAR

STARTCHAR C171
ENCODING 171
SWIDTH 714 0
DWIDTH 9 0
BBX 9 15 0 -3
BITMAP
6200
6600
6400
6C00
6800
0800
1B80
3080
2180
6300
4600
0780
0000
0000
0000
ENDCHAR

STARTCHAR C172
ENCODING 172
SWIDTH 714 0
DWIDTH 9 0
BBX 9 15 0 -3
BITMAP
6100
6300
6200
6600
6C00
0880
1980
3380
2580
6D80
4F80
0180
0000
0000
0000
ENDCHAR

STARTCHAR C173
ENCODING 173
SWIDTH 714 0
DWIDTH 9 0
BBX 9 15 0 -3
BITMAP
0000
0C00
0000
0C00
0C00
0C00
0C00
0C00
1E00
1E00
1E00
0C00
0000
0000
0000
ENDCHAR

STARTCHAR C174
ENCODING 174
SWIDTH 714 0
DWIDTH 9 0
BBX 9 15 0 -3
BITMAP
0000
0000
0D80
1B00
3600
6C00
3600
1B00
0D80
0000
0000
0000
0000
0000
0000
ENDCHAR

STARTCHAR C175
ENCODING 175
SWIDTH 714 0
DWIDTH 9 0
BBX 9 15 0 -3
BITMAP
0000
0000
D800
6C00
3600
1B00
3600
6C00
D800
0000
0000
0000
0000
0000
0000
ENDCHAR

STARTCHAR C176
ENCODING 176
SWIDTH 714 0
DWIDTH 9 0
BBX 9 15 0 -3
BITMAP
0000
6D80
0000
0000
6D80
0000
0000
6D80
0000
0000
6D80
0000
0000
6D80
0000
ENDCHAR

STARTCHAR C177
ENCODING 177
SWIDTH 714 0
DWIDTH 9 0
BBX 9 15 0 -3
BITMAP
0000
DB00
0000
6D80
0000
DB00
0000
6D80
0000
DB00
0000
6D80
0000
DB00
0000
ENDCHAR

STARTCHAR C178
ENCODING 178
SWIDTH 714 0
DWIDTH 9 0
BBX 9 15 0 -3
BITMAP
DB00
6D80
DB00
6D80
DB00
6D80
DB00
6D80
DB00
6D80
DB00
6D80
DB00
6D80
DB00
ENDCHAR

STARTCHAR C179
ENCODING 179
SWIDTH 714 0
DWIDTH 9 0
BBX 9 15 0 -3
BITMAP
0C00
0C00
0C00
0C00
0C00
0C00
0C00
0C00
0C00
0C00
0C00
0C00
0C00
0C00
0C00
ENDCHAR

STARTCHAR C180
ENCODING 180
SWIDTH 714 0
DWIDTH 9 0
BBX 9 15 0 -3
BITMAP
0C00
0C00
0C00
0C00
0C00
0C00
0C00
FC00
FC00
0C00
0C00
0C00
0C00
0C00
0C00
ENDCHAR

STARTCHAR C181
ENCODING 181
SWIDTH 714 0
DWIDTH 9 0
BBX 9 15 0 -3
BITMAP
0C00
0C00
0C00
0C00
0C00
FC00
FC00
0C00
FC00
FC00
0C00
0C00
0C00
0C00
0C00
ENDCHAR

STARTCHAR C182
ENCODING 182
SWIDTH 714 0
DWIDTH 9 0
BBX 9 15 0 -3
BITMAP
3600
3600
3600
3600
3600
3600
3600
F600
F600
3600
3600
3600
3600
3600
3600
ENDCHAR

STARTCHAR C183
ENCODING 183
SWIDTH 714 0
DWIDTH 9 0
BBX 9 15 0 -3
BITMAP
0000
0000
0000
0000
0000
0000
0000
FE00
FE00
3600
3600
3600
3600
3600
3600
ENDCHAR

STARTCHAR C184
ENCODING 184
SWIDTH 714 0
DWIDTH 9 0
BBX 9 15 0 -3
BITMAP
0000
0000
0000
0000
0000
FC00
FC00
0C00
FC00
FC00
0C00
0C00
0C00
0C00
0C00
ENDCHAR

STARTCHAR C185
ENCODING 185
SWIDTH 714 0
DWIDTH 9 0
BBX 9 15 0 -3
BITMAP
3600
3600
3600
3600
3600
F600
F600
0600
F600
F600
3600
3600
3600
3600
3600
ENDCHAR

STARTCHAR C186
ENCODING 186
SWIDTH 714 0
DWIDTH 9 0
BBX 9 15 0 -3
BITMAP
3600
3600
3600
3600
3600
3600
3600
3600
3600
3600
3600
3600
3600
3600
3600
ENDCHAR

STARTCHAR C187
ENCODING 187
SWIDTH 714 0
DWIDTH 9 0
BBX 9 15 0 -3
BITMAP
0000
0000
0000
0000
0000
FE00
FE00
0600
F600
F600
3600
3600
3600
3600
3600
ENDCHAR

STARTCHAR C188
ENCODING 188
SWIDTH 714 0
DWIDTH 9 0
BBX 9 15 0 -3
BITMAP
3600
3600
3600
3600
3600
F600
F600
0600
FE00
FE00
0000
0000
0000
0000
0000
ENDCHAR

STARTCHAR C189
ENCODING 189
SWIDTH 714 0
DWIDTH 9 0
BBX 9 15 0 -3
BITMAP
3600
3600
3600
3600
3600
3600
3600
FE00
FE00
0000
0000
0000
0000
0000
0000
ENDCHAR

STARTCHAR C190
ENCODING 190
SWIDTH 714 0
DWIDTH 9 0
BBX 9 15 0 -3
BITMAP
0C00
0C00
0C00
0C00
0C00
FC00
FC00
0C00
FC00
FC00
0000
0000
0000
0000
0000
ENDCHAR

STARTCHAR C191
ENCODING 191
SWIDTH 714 0
DWIDTH 9 0
BBX 9 15 0 -3
BITMAP
0000
0000
0000
0000
0000
0000
0000
FC00
FC00
0C00
0C00
0C00
0C00
0C00
0C00
ENDCHAR

STARTCHAR C192
ENCODING 192
SWIDTH 714 0
DWIDTH 9 0
BBX 9 15 0 -3
BITMAP
0C00
0C00
0C00
0C00
0C00
0C00
0C00
0F80
0F80
0000
0000
0000
0000
0000
0000
ENDCHAR

STARTCHAR C193
ENCODING 193
SWIDTH 714 0
DWIDTH 9 0
BBX 9 15 0 -3
BITMAP
0C00
0C00
0C00
0C00
0C00
0C00
0C00
FF80
FF80
0000
0000
0000
0000
0000
0000
ENDCHAR

STARTCHAR C194
ENCODING 194
SWIDTH 714 0
DWIDTH 9 0
BBX 9 15 0 -3
BITMAP
0000
0000
0000
0000
0000
0000
0000
FF80
FF80
0C00
0C00
0C00
0C00
0C00
0C00
ENDCHAR

STARTCHAR C195
ENCODING 195
SWIDTH 714 0
DWIDTH 9 0
BBX 9 15 0 -3
BITMAP
0C00
0C00
0C00
0C00
0C00
0C00
0C00
0F80
0F80
0C00
0C00
0C00
0C00
0C00
0C00
ENDCHAR

STARTCHAR C196
ENCODING 196
SWIDTH 714 0
DWIDTH 9 0
BBX 9 15 0 -3
BITMAP
0000
0000
0000
0000
0000
0000
0000
FF80
FF80
0000
0000
0000
0000
0000
0000
ENDCHAR

STARTCHAR C197
ENCODING 197
SWIDTH 714 0
DWIDTH 9 0
BBX 9 15 0 -3
BITMAP
0C00
0C00
0C00
0C00
0C00
0C00
0C00
FF80
FF80
0C00
0C00
0C00
0C00
0C00
0C00
ENDCHAR

STARTCHAR C198
ENCODING 198
SWIDTH 714 0
DWIDTH 9 0
BBX 9 15 0 -3
BITMAP
0C00
0C00
0C00
0C00
0C00
0F80
0F80
0800
0F80
0F80
0C00
0C00
0C00
0C00
0C00
ENDCHAR

STARTCHAR C199
ENCODING 199
SWIDTH 714 0
DWIDTH 9 0
BBX 9 15 0 -3
BITMAP
3600
3600
3600
3600
3600
3600
3600
3780
3780
3600
3600
3600
3600
3600
3600
ENDCHAR

STARTCHAR C200
ENCODING 200
SWIDTH 714 0
DWIDTH 9 0
BBX 9 15 0 -3
BITMAP
3600
3600
3600
3600
3600
3780
3780
3000
3F80
3F80
0000
0000
0000
0000
0000
ENDCHAR

STARTCHAR C201
ENCODING 201
SWIDTH 714 0
DWIDTH 9 0
BBX 9 15 0 -3
BITMAP
0000
0000
0000
0000
0000
3F80
3F80
3000
3780
3780
3600
3600
3600
3600
3600
ENDCHAR

STARTCHAR C202
ENCODING 202
SWIDTH 714 0
DWIDTH 9 0
BBX 9 15 0 -3
BITMAP
3600
3600
3600
3600
3600
F780
F780
0000
FF80
FF80
0000
0000
0000
0000
0000
ENDCHAR

STARTCHAR C203
ENCODING 203
SWIDTH 714 0
DWIDTH 9 0
BBX 9 15 0 -3
BITMAP
0000
0000
0000
0000
0000
FF80
FF80
0000
F780
F780
3600
3600
3600
3600
3600
ENDCHAR

STARTCHAR C204
ENCODING 204
SWIDTH 714 0
DWIDTH 9 0
BBX 9 15 0 -3
BITMAP
3600
3600
3600
3600
3600
3780
3780
3600
3780
3780
3600
3600
3600
3600
3600
ENDCHAR

STARTCHAR C205
ENCODING 205
SWIDTH 714 0
DWIDTH 9 0
BBX 9 15 0 -3
BITMAP
0000
0000
0000
0000
0000
FF80
FF80
0000
FF80
FF80
0000
0000
0000
0000
0000
ENDCHAR

STARTCHAR C206
ENCODING 206
SWIDTH 714 0
DWIDTH 9 0
BBX 9 15 0 -3
BITMAP
3600
3600
3600
3600
3600
F780
F780
0000
F780
F780
3600
3600
3600
3600
3600
ENDCHAR

STARTCHAR C207
ENCODING 207
SWIDTH 714 0
DWIDTH 9 0
BBX 9 15 0 -3
BITMAP
0C00
0C00
0C00
0C00
0C00
FF80
FF80
0000
FF80
FF80
0000
0000
0000
0000
0000
ENDCHAR

STARTCHAR C208
ENCODING 208
SWIDTH 714 0
DWIDTH 9 0
BBX 9 15 0 -3
BITMAP
3600
3600
3600
3600
3600
3600
3600
FF80
FF80
0000
0000
0000
0000
0000
0000
ENDCHAR

STARTCHAR C209
ENCODING 209
SWIDTH 714 0
DWIDTH 9 0
BBX 9 15 0 -3
BITMAP
0000
0000
0000
0000
0000
FF80
FF80
0000
FF80
FF80
0C00
0C00
0C00
0C00
0C00
ENDCHAR

STARTCHAR C210
ENCODING 210
SWIDTH 714 0
DWIDTH 9 0
BBX 9 15 0 -3
BITMAP
0000
0000
0000
0000
0000
0000
0000
FF80
FF80
3600
3600
3600
3600
3600
3600
ENDCHAR

STARTCHAR C211
ENCODING 211
SWIDTH 714 0
DWIDTH 9 0
BBX 9 15 0 -3
BITMAP
3600
3600
3600
3600
3600
3600
3600
3F80
3F80
0000
0000
0000
0000
0000
0000
ENDCHAR

STARTCHAR C212
ENCODING 212
SWIDTH 714 0
DWIDTH 9 0
BBX 9 15 0 -3
BITMAP
0C00
0C00
0C00
0C00
0C00
0F80
0F80
0C00
0F80
0F80
0000
0000
0000
0000
0000
ENDCHAR

STARTCHAR C213
ENCODING 213
SWIDTH 714 0
DWIDTH 9 0
BBX 9 15 0 -3
BITMAP
0000
0000
0000
0000
0000
0F80
0F80
0C00
0F80
0F80
0C00
0C00
0C00
0C00
0C00
ENDCHAR

STARTCHAR C214
ENCODING 214
SWIDTH 714 0
DWIDTH 9 0
BBX 9 15 0 -3
BITMAP
0000
0000
0000
0000
0000
0000
0000
3F80
3F80
3600
3600
3600
3600
3600
3600
ENDCHAR

STARTCHAR C215
ENCODING 215
SWIDTH 714 0
DWIDTH 9 0
BBX 9 15 0 -3
BITMAP
3600
3600
3600
3600
3600
3600
3600
FF80
FF80
3600
3600
3600
3600
3600
3600
ENDCHAR

STARTCHAR C216
ENCODING 216
SWIDTH 714 0
DWIDTH 9 0
BBX 9 15 0 -3
BITMAP
0C00
0C00
0C00
0C00
0C00
FF80
FF80
0C00
FF80
FF80
0C00
0C00
0C00
0C00
0C00
ENDCHAR

STARTCHAR C217
ENCODING 217
SWIDTH 714 0
DWIDTH 9 0
BBX 9 15 0 -3
BITMAP
0C00
0C00
0C00
0C00
0C00
0C00
0C00
FC00
FC00
0000
0000
0000
0000
0000
0000
ENDCHAR

STARTCHAR C218
ENCODING 218
SWIDTH 714 0
DWIDTH 9 0
BBX 9 15 0 -3
BITMAP
0000
0000
0000
0000
0000
0000
0000
0F80
0F80
0C00
0C00
0C00
0C00
0C00
0C00
ENDCHAR

STARTCHAR C219
ENCODING 219
SWIDTH 714 0
DWIDTH 9 0
BBX 9 15 0 -3
BITMAP
FF80
FF80
FF80
FF80
FF80
FF80
FF80
FF80
FF80
FF80
FF80
FF80
FF80
FF80
FF80
ENDCHAR

STARTCHAR C220
ENCODING 220
SWIDTH 714 0
DWIDTH 9 0
BBX 9 15 0 -3
BITMAP
0000
0000
0000
0000
0000
0000
0000
FF80
FF80
FF80
FF80
FF80
FF80
FF80
FF80
ENDCHAR

STARTCHAR C221
ENCODING 221
SWIDTH 714 0
DWIDTH 9 0
BBX 9 15 0 -3
BITMAP
F800
F800
F800
F800
F800
F800
F800
F800
F800
F800
F800
F800
F800
F800
F800
ENDCHAR

STARTCHAR C222
ENCODING 222
SWIDTH 714 0
DWIDTH 9 0
BBX 9 15 0 -3
BITMAP
0F80
0F80
0F80
0F80
0F80
0F80
0F80
0F80
0F80
0F80
0F80
0F80
0F80
0F80
0F80
ENDCHAR

STARTCHAR C223
ENCODING 223
SWIDTH 714 0
DWIDTH 9 0
BBX 9 15 0 -3
BITMAP
FF80
FF80
FF80
FF80
FF80
FF80
FF80
FF80
0000
0000
0000
0000
0000
0000
0000
ENDCHAR

STARTCHAR C224
ENCODING 224
SWIDTH 714 0
DWIDTH 9 0
BBX 9 15 0 -3
BITMAP
0000
0000
0000
0080
1E80
3680
3380
6380
6380
3380
3680
1E80
0080
0000
0000
ENDCHAR

STARTCHAR C225
ENCODING 225
SWIDTH 714 0
DWIDTH 9 0
BBX 9 15 0 -3
BITMAP
0000
0000
1F00
3180
3180
3180
3180
3F00
3180
3180
3180
3F00
3000
3000
0000
ENDCHAR

STARTCHAR C226
ENCODING 226
SWIDTH 714 0
DWIDTH 9 0
BBX 9 15 0 -3
BITMAP
0000
0000
3F80
3180
3000
3000
3000
3000
3000
3000
3000
3000
0000
0000
0000
ENDCHAR

STARTCHAR C227
ENCODING 227
SWIDTH 714 0
DWIDTH 9 0
BBX 9 15 0 -3
BITMAP
0000
0000
0380
7F00
3600
3600
3600
3600
3600
3600
3600
3700
0000
0000
0000
ENDCHAR

STARTCHAR C228
ENCODING 228
SWIDTH 714 0
DWIDTH 9 0
BBX 9 15 0 -3
BITMAP
0000
3F80
3080
1800
0C00
0600
0300
0600
0C00
1880
3F80
3F80
0000
0000
0000
ENDCHAR

STARTCHAR C229
ENCODING 229
SWIDTH 714 0
DWIDTH 9 0
BBX 9 15 0 -3
BITMAP
0000
0000
0000
0000
0000
0000
3F80
6600
6600
6600
7E00
3C00
0000
0000
0000
ENDCHAR

STARTCHAR C230
ENCODING 230
SWIDTH 714 0
DWIDTH 9 0
BBX 9 15 0 -3
BITMAP
0000
0000
0000
0000
3300
3300
3300
3300
3300
3F00
3E00
7800
7000
0000
0000
ENDCHAR

STARTCHAR C231
ENCODING 231
SWIDTH 714 0
DWIDTH 9 0
BBX 9 15 0 -3
BITMAP
0000
0000
1F80
3F80
2C00
0C00
0C00
0C00
1800
1800
1800
1800
0000
0000
0000
ENDCHAR

STARTCHAR C232
ENCODING 232
SWIDTH 714 0
DWIDTH 9 0
BBX 9 15 0 -3
BITMAP
0000
0000
0000
1F00
0E00
1F00
3B80
3180
3B80
1F00
0E00
1F00
0000
0000
0000
ENDCHAR

STARTCHAR C233
ENCODING 233
SWIDTH 714 0
DWIDTH 9 0
BBX 9 15 0 -3
BITMAP
0000
0000
0000
1F00
3F80
3180
3180
3F80
3180
3180
3F80
1F00
0000
0000
0000
ENDCHAR

STARTCHAR C234
ENCODING 234
SWIDTH 714 0
DWIDTH 9 0
BBX 9 15 0 -3
BITMAP
0000
0000
0000
0000
3F00
7380
6180
7380
3300
3300
3300
7380
0000
0000
0000
ENDCHAR

STARTCHAR C235
ENCODING 235
SWIDTH 714 0
DWIDTH 9 0
BBX 9 15 0 -3
BITMAP
0000
0000
3F00
3100
3800
1C00
0E00
3E00
3700
7300
3300
3E00
1C00
0000
0000
ENDCHAR

STARTCHAR C236
ENCODING 236
SWIDTH 714 0
DWIDTH 9 0
BBX 9 15 0 -3
BITMAP
0000
0000
0000
0000
7700
D580
DD80
D580
7700
0000
0000
0000
0000
0000
0000
ENDCHAR

STARTCHAR C237
ENCODING 237
SWIDTH 714 0
DWIDTH 9 0
BBX 9 15 0 -3
BITMAP
0000
0000
0000
1F00
3180
3380
3580
3580
3580
3980
3180
1F00
0000
0000
0000
ENDCHAR

STARTCHAR C238
ENCODING 238
SWIDTH 714 0
DWIDTH 9 0
BBX 9 15 0 -3
BITMAP
0000
0000
0000
0780
0E00
1C00
3800
3F80
3800
1C00
0E00
0780
0000
0000
0000
ENDCHAR

STARTCHAR C239
ENCODING 239
SWIDTH 714 0
DWIDTH 9 0
BBX 9 15 0 -3
BITMAP
0000
0000
1F00
3F80
3180
3180
3180
3180
3180
3180
3180
3180
0000
0000
0000
ENDCHAR

STARTCHAR C240
ENCODING 240
SWIDTH 714 0
DWIDTH 9 0
BBX 9 15 0 -3
BITMAP
0000
0000
0000
3F80
3F80
0000
3F80
3F80
0000
3F80
3F80
0000
0000
0000
0000
ENDCHAR

STARTCHAR C241
ENCODING 241
SWIDTH 714 0
DWIDTH 9 0
BBX 9 15 0 -3
BITMAP
0C00
0C00
0C00
7F80
0C00
0C00
0C00
0000
7F80
7F80
0000
0000
0000
0000
0000
ENDCHAR

STARTCHAR C242
ENCODING 242
SWIDTH 714 0
DWIDTH 9 0
BBX 9 15 0 -3
BITMAP
0000
0800
0C00
0600
0300
0180
0300
0600
0C00
0800
0000
1F80
0000
0000
0000
ENDCHAR

STARTCHAR C243
ENCODING 243
SWIDTH 714 0
DWIDTH 9 0
BBX 9 15 0 -3
BITMAP
0000
0100
0300
0600
0C00
1800
0C00
0600
0300
0100
0000
1F80
0000
0000
0000
ENDCHAR

STARTCHAR C244
ENCODING 244
SWIDTH 714 0
DWIDTH 9 0
BBX 9 15 0 -3
BITMAP
0000
0F00
1980
1980
1980
1800
1800
1800
1800
1800
1800
1800
1800
1800
1800
ENDCHAR

STARTCHAR C245
ENCODING 245
SWIDTH 714 0
DWIDTH 9 0
BBX 9 15 0 -3
BITMAP
0C00
0C00
0C00
0C00
0C00
0C00
0C00
0C00
0C00
0C00
CC00
CC00
CC00
7800
0000
ENDCHAR

STARTCHAR C246
ENCODING 246
SWIDTH 714 0
DWIDTH 9 0
BBX 9 15 0 -3
BITMAP
0000
0000
0000
0C00
0C00
0000
7F80
7F80
0000
0C00
0C00
0000
0000
0000
0000
ENDCHAR

STARTCHAR C247
ENCODING 247
SWIDTH 714 0
DWIDTH 9 0
BBX 9 15 0 -3
BITMAP
0000
0000
0000
1880
3F80
2700
0000
1880
3F80
2700
0000
0000
0000
0000
0000
ENDCHAR

STARTCHAR C248
ENCODING 248
SWIDTH 714 0
DWIDTH 9 0
BBX 9 15 0 -3
BITMAP
0000
0000
0000
0000
1E00
3F00
3300
3300
3F00
1E00
0000
0000
0000
0000
0000
ENDCHAR

STARTCHAR C249
ENCODING 249
SWIDTH 714 0
DWIDTH 9 0
BBX 9 15 0 -3
BITMAP
0000
0000
0800
1C00
3E00
7F00
3E00
1C00
0800
0000
0000
0000
0000
0000
0000
ENDCHAR

STARTCHAR C250
ENCODING 250
SWIDTH 714 0
DWIDTH 9 0
BBX 9 15 0 -3
BITMAP
0000
0000
0000
0000
1E00
1E00
1E00
1E00
0000
0000
0000
0000
0000
0000
0000
ENDCHAR

STARTCHAR C251
ENCODING 251
SWIDTH 714 0
DWIDTH 9 0
BBX 9 15 0 -3
BITMAP
0000
0000
0000
0000
0000
1F80
1F80
5800
7800
3800
1800
0000
0000
0000
0000
ENDCHAR

STARTCHAR C252
ENCODING 252
SWIDTH 714 0
DWIDTH 9 0
BBX 9 15 0 -3
BITMAP
0000
3700
3D80
3980
3180
3180
0000
0000
0000
0000
0000
0000
0000
0000
0000
ENDCHAR

STARTCHAR C253
ENCODING 253
SWIDTH 714 0
DWIDTH 9 0
BBX 9 15 0 -3
BITMAP
0000
0E00
1300
0600
0C00
1F80
0000
0000
0000
0000
0000
0000
0000
0000
0000
ENDCHAR

STARTCHAR C254
ENCODING 254
SWIDTH 714 0
DWIDTH 9 0
BBX 9 15 0 -3
BITMAP
0000
0000
0000
0000
3F00
3F00
3F00
3F00
3F00
3F00
3F00
3F00
0000
0000
0000
ENDCHAR

STARTCHAR C255
ENCODING 255
SWIDTH 714 0
DWIDTH 9 0
BBX 9 15 0 -3
BITMAP
0000
0000
0000
0000
0000
0000
0000
0000
0000
0000
0000
0000
0000
0000
0000
ENDCHAR
ENDFONT
